 <svg  version="1.0" xmlns="http://www.w3.org/2000/svg"  width="300.000000pt" height="302.000000pt" viewBox="0 0 300.000000 302.000000"  preserveAspectRatio="xMidYMid meet">  <g transform="translate(0.000000,302.000000) scale(0.100000,-0.100000)" fill="#521b92" stroke="none"> <path d="M315 2288 c-5 -24 -285 -1617 -285 -1624 0 -4 410 -6 410 -1 1 1 25 135 54 297 l52 295 91 3 91 3 11 -33 c5 -18 35 -123 66 -233 31 -110 65 -230 76 -267 l20 -68 214 0 c141 0 215 4 215 10 0 6 -50 185 -111 398 -61 213 -111 394 -111 402 -1 8 112 195 252 415 139 220 255 406 257 413 4 9 -42 12 -210 12 l-215 0 -218 -345 -218 -345 -74 0 -74 0 6 28 c8 36 116 651 116 657 0 3 -92 5 -205 5 -204 0 -205 0 -210 -22z"/> <path d="M1820 2307 c0 -8 -279 -1599 -285 -1624 l-5 -23 384 0 c435 0 477 5 611 69 164 78 292 237 340 420 9 35 39 193 66 350 45 252 50 298 46 391 -5 129 -29 197 -94 270 -55 61 -113 97 -202 123 -60 19 -102 21 -463 25 -219 2 -398 1 -398 -1z m635 -385 c66 -40 93 -92 94 -183 1 -62 -71 -489 -95 -560 -20 -61 -74 -123 -126 -144 -56 -22 -318 -35 -318 -15 0 13 146 867 156 909 5 23 6 23 127 20 106 -4 127 -7 162 -27z"/> </g> </svg> 